<svg width="20" height="22" viewBox="0 0 20 22" fill="none" xmlns="http://www.w3.org/2000/svg">
<path fill-rule="evenodd" clip-rule="evenodd" d="M8.25 5C6.17893 5 4.5 6.67893 4.5 8.75C4.5 10.8211 6.17893 12.5 8.25 12.5C10.3211 12.5 12 10.8211 12 8.75C12 6.67893 10.3211 5 8.25 5ZM8.25 11C7.00736 11 6 9.99264 6 8.75C6 7.50736 7.00736 6.5 8.25 6.5C9.49264 6.5 10.5 7.50736 10.5 8.75C10.5 9.99264 9.49264 11 8.25 11ZM8.25 0.5C3.69579 0.505166 0.00516653 4.19579 0 8.75C0 11.6938 1.36031 14.8138 3.9375 17.7734C5.09552 19.1108 6.39886 20.3151 7.82344 21.3641C8.08177 21.545 8.42573 21.545 8.68406 21.3641C10.106 20.3147 11.4068 19.1104 12.5625 17.7734C15.1359 14.8138 16.5 11.6938 16.5 8.75C16.4948 4.19579 12.8042 0.505166 8.25 0.5ZM8.25 19.8125C6.70031 18.5938 1.5 14.1172 1.5 8.75C1.5 5.02208 4.52208 2 8.25 2C11.9779 2 15 5.02208 15 8.75C15 14.1153 9.79969 18.5938 8.25 19.8125Z" fill="#FF0000"/>
</svg>