<?xml version="1.0" encoding="UTF-8"?>
<svg xmlns="http://www.w3.org/2000/svg" baseProfile="tiny" version="1.2" viewBox="0 0 20 20">
  <!-- Generator: Adobe Illustrator 28.7.1, SVG Export Plug-In . SVG Version: 1.2.0 Build 142)  -->
  <g>
    <g id="Calque_1">
      <path d="M10,0C5.6,0,2,3.5,2,7.9c0,2.8,1.3,5.8,3.8,8.6,1.1,1.3,2.4,2.4,3.8,3.4.3.2.6.2.8,0,1.4-1,2.6-2.1,3.8-3.4,2.5-2.8,3.8-5.8,3.8-8.6,0-4.3-3.6-7.9-8-7.9ZM10,18.5c-1.5-1.2-6.5-5.4-6.5-10.6S6.4,1.5,10,1.5s6.5,2.9,6.5,6.4c0,5.1-5,9.4-6.5,10.6ZM10.1,3.9c-2,0-3.6,1.6-3.6,3.6s1.6,3.6,3.6,3.6,3.6-1.6,3.6-3.6-1.6-3.6-3.6-3.6ZM10.1,9.6c-1.2,0-2.2-1-2.2-2.1s1-2.1,2.2-2.1,2.2,1,2.2,2.1-1,2.1-2.2,2.1Z" fill-rule="evenodd"/>
    </g>
  </g>
</svg>