<?xml version="1.0" encoding="UTF-8"?>
<svg xmlns="http://www.w3.org/2000/svg" version="1.1" viewBox="0 0 20 20">
  <defs>
    <style>
      .cls-1 {
        fill: #fff;
      }

      .cls-2 {
        fill: none;
        stroke: #000;
        stroke-miterlimit: 10;
      }
    </style>
  </defs>
  <!-- Generator: Adobe Illustrator 28.7.1, SVG Export Plug-In . SVG Version: 1.2.0 Build 142)  -->
  <g>
    <g id="Calque_1">
      <g>
        <circle class="cls-1" cx="10" cy="6" r="5"/>
        <path d="M10,1.5c2.5,0,4.5,2,4.5,4.5s-2,4.5-4.5,4.5-4.5-2-4.5-4.5S7.5,1.5,10,1.5M10,.5c-3,0-5.5,2.5-5.5,5.5s2.5,5.5,5.5,5.5,5.5-2.5,5.5-5.5S13,.5,10,.5h0Z"/>
      </g>
      <path class="cls-2" d="M1.5,18.5"/>
      <path class="cls-2" d="M18.5,19c-.4-4.3-3.9-7.7-8-8-4.5-.3-8.6,3.3-9,8h17Z"/>
    </g>
  </g>
</svg>