<?xml version="1.0" encoding="UTF-8"?>
<svg xmlns="http://www.w3.org/2000/svg" version="1.1" viewBox="0 0 20 20">
  <!-- Generator: Adobe Illustrator 28.7.1, SVG Export Plug-In . SVG Version: 1.2.0 Build 142)  -->
  <g>
    <g id="Calque_1">
      <g id="Calque_1-2" data-name="Calque_1">
        <g id="Calque_1-2">
          <path d="M13.1,3.2c-1.3,0-2.4.6-3.1,1.7-.7-1.1-1.8-1.7-3.1-1.7-2,0-3.8,2-3.8,4.5,0,5,6.3,9,6.6,9.2h.5c.3-.2,6.6-4.2,6.6-9.2s-1.8-4.5-3.8-4.5ZM14.4,0C12.5,0,10.9.9,10,2.5,9,.9,7.4,0,5.5,0,2.5,0,0,2.9,0,6.5,0,13.8,9.3,19.7,9.7,19.9c.2.1.5.1.7,0,.4-.2,9.7-6.1,9.7-13.4C19.9,2.9,17.4,0,14.4,0ZM13.5,2c-1.5,0-2.8.7-3.6,2-.8-1.3-2.1-2-3.6-2-2.4,0-4.4,2.3-4.4,5.2,0,5.9,7.4,10.6,7.7,10.7.2,0,.4,0,.6,0,.3-.2,7.7-4.9,7.7-10.7,0-2.9-2.1-5.2-4.5-5.2Z" fill-rule="evenodd"/>
        </g>
      </g>
    </g>
  </g>
</svg>