<svg width="20" height="20" viewBox="0 0 20 20" fill="none" xmlns="http://www.w3.org/2000/svg">
<path fill-rule="evenodd" clip-rule="evenodd" d="M13.5 8.5C13.5 11.3995 11.1495 13.75 8.25 13.75C5.3505 13.75 3 11.3995 3 8.5C3 5.6005 5.3505 3.25 8.25 3.25C11.1495 3.25 13.5 5.6005 13.5 8.5ZM19.2806 19.5306C19.1399 19.6715 18.9491 19.7506 18.75 19.7506C18.5509 19.7506 18.3601 19.6715 18.2194 19.5306L13.5262 14.8366C10.1358 17.6572 5.12647 17.3124 2.15446 14.0538C-0.817553 10.7952 -0.701056 5.77538 2.41892 2.65816C5.5389 -0.459059 10.5588 -0.571119 13.8148 2.40377C17.0708 5.37866 17.4111 10.3883 14.5875 13.7762L19.2806 18.4694C19.4215 18.6101 19.5006 18.8009 19.5006 19C19.5006 19.1991 19.4215 19.3899 19.2806 19.5306ZM8.25 15.25C11.9779 15.25 15 12.2279 15 8.5C15 4.77208 11.9779 1.75 8.25 1.75C4.52208 1.75 1.5 4.77208 1.5 8.5C1.50413 12.2262 4.52379 15.2459 8.25 15.25Z" fill="#1C1C21"/>
</svg>
