<?xml version="1.0" encoding="UTF-8"?>
<svg xmlns="http://www.w3.org/2000/svg" version="1.1" viewBox="0 0 20 20">
  <!-- Generator: Adobe Illustrator 28.7.1, SVG Export Plug-In . SVG Version: 1.2.0 Build 142)  -->
  <g>
    <path d="M14.4,2.2H5.6c-.7,0-1.2.6-1.2,1.2v13.8c0,.2.1.4.3.5.2.1.4.1.6,0l4.7-2.9,4.7,2.9c.2.1.4.1.6,0,.2-.1.3-.3.3-.5V3.4c0-.7-.6-1.2-1.2-1.2ZM14.4,3.4v8.9l-4-2.5c-.2-.1-.5-.1-.7,0l-4,2.5V3.4h8.8ZM10.3,13.5c-.2-.1-.5-.1-.7,0l-4,2.5v-2.3l4.4-2.7,4.4,2.7v2.3l-4-2.5Z" fill="#1d1d22" fill-rule="evenodd"/>
  </g>
</svg>